<?xml version="1.0" encoding="utf-8"?>
<!-- Generator: Adobe Illustrator 23.0.2, SVG Export Plug-In . SVG Version: 6.00 Build 0)  -->
<svg version="1.1" id="Layer_1" focusable="false" xmlns="http://www.w3.org/2000/svg" xmlns:xlink="http://www.w3.org/1999/xlink"
	 x="0px" y="0px" width="42px" height="48px" viewBox="0 0 42 48" style="enable-background:new 0 0 42 48;" xml:space="preserve">
<style type="text/css">
	.st0{fill:#00BCD4;}
</style>
<path class="st0" d="M27.9,22.8c0,1.5-1.1,2.7-2.4,2.7c-1.3,0-2.4-1.2-2.4-2.7s1.1-2.7,2.4-2.7S27.9,21.3,27.9,22.8z M16.7,20.1
	c-1.4,0-2.4,1.2-2.4,2.7s1.1,2.7,2.4,2.7c1.4,0,2.4-1.2,2.4-2.7C19.1,21.3,18,20.1,16.7,20.1z M42,4.9V48c-6-5.3-4.1-3.6-11.1-10.1
	l1.3,4.4H4.9c-2.7,0-4.9-2.2-4.9-4.9V4.9C0,2.2,2.2,0,4.9,0h32.2C39.8,0,42,2.2,42,4.9z M35.2,27.7c0-7.7-3.5-14-3.5-14
	c-3.5-2.6-6.7-2.5-6.7-2.5l-0.3,0.4c4.1,1.2,6,3,6,3c-5.7-3.1-12.4-3.1-17.9-0.7c-0.9,0.4-1.4,0.7-1.4,0.7s2-1.9,6.3-3.1l-0.2-0.3
	c0,0-3.3-0.1-6.7,2.5c0,0-3.5,6.3-3.5,14c0,0,2,3.5,7.3,3.6c0,0,0.9-1.1,1.6-2c-3-0.9-4.2-2.8-4.2-2.8c0.4,0.2,0.9,0.6,1,0.6
	c4.1,2.3,9.8,3,15,0.8c0.8-0.3,1.8-0.8,2.8-1.4c0,0-1.2,2-4.3,2.9c0.7,0.9,1.6,1.9,1.6,1.9C33.1,31.2,35.2,27.7,35.2,27.7L35.2,27.7
	z"/>
</svg>
