<?xml version="1.0" encoding="utf-8"?>
<!-- Generator: Adobe Illustrator 23.0.2, SVG Export Plug-In . SVG Version: 6.00 Build 0)  -->
<svg version="1.1" id="Layer_1" focusable="false" xmlns="http://www.w3.org/2000/svg" xmlns:xlink="http://www.w3.org/1999/xlink"
	 x="0px" y="0px" width="64px" height="48px" viewBox="0 0 64 48" style="enable-background:new 0 0 64 48;" xml:space="preserve">
<style type="text/css">
	.st0{opacity:0.4;fill:#00BCD4;enable-background:new    ;}
	.st1{fill:#00BCD4;}
</style>
<g>
	<path class="st0" d="M32.1,36h-0.1c-3.8,0-7.6-2.9-10.3-5.1C21.2,30.6,3.1,17.3,0,14.9V42c0,3.3,2.7,6,6,6h52c3.3,0,6-2.7,6-6V14.9
		c-3.1,2.4-21.2,15.7-21.6,16C39.6,33.1,35.8,36,32.1,36L32.1,36z M58,0H6C2.7,0,0,2.7,0,6v2.4c0,0.9,0.4,1.8,1.1,2.4
		c3.8,3,5.1,4,21.7,16.1c2.1,1.5,6.3,5.2,9.2,5.2c2.9,0,7.1-3.7,9.2-5.2c16.6-12,17.9-13.1,21.7-16.1c0.7-0.6,1.2-1.4,1.2-2.4V6
		C64,2.7,61.3,0,58,0z"/>
	<path class="st1" d="M64,8.4v6.5c-3.1,2.4-21.2,15.7-21.6,16c-2.8,2.1-6.6,5.1-10.3,5.1h-0.1c-3.8,0-7.6-2.9-10.3-5.1
		C21.2,30.6,3.1,17.3,0,14.9V8.4c0,0.9,0.4,1.8,1.1,2.4c3.8,3,5.1,4,21.7,16.1c2.1,1.5,6.2,5.2,9.1,5.2h0.1c2.9,0,7-3.7,9.1-5.2
		c16.6-12,17.9-13.1,21.7-16.1C63.6,10.2,64,9.3,64,8.4z"/>
</g>
</svg>
