<?xml version="1.0" encoding="utf-8"?>
<!-- Generator: Adobe Illustrator 23.0.2, SVG Export Plug-In . SVG Version: 6.00 Build 0)  -->
<svg version="1.1" id="Layer_1" focusable="false" xmlns="http://www.w3.org/2000/svg" xmlns:xlink="http://www.w3.org/1999/xlink"
	 x="0px" y="0px" width="48px" height="48px" viewBox="0 0 48 48" style="enable-background:new 0 0 48 48;" xml:space="preserve">
<style type="text/css">
	.st0{opacity:0.4;fill:#00BCD4;enable-background:new    ;}
	.st1{fill:#00BCD4;}
</style>
<g>
	<path class="st0" d="M30.2,0.8v3.3c0,0.8-0.4,1.7-1.1,2.2l-4,3c-0.4,0.2-0.5,0.7-0.2,1.1c0.1,0.1,0.2,0.2,0.3,0.3l1,0.5
		c0.5,0.3,0.9,0.8,0.9,1.4v7.6c0,0.4-0.3,0.8-0.8,0.8H26c-0.3,0-0.6-0.2-0.7-0.4c0-0.1-0.1-0.1-0.2-0.2c-0.2-0.1-0.5-0.1-0.6,0.1
		c0,0,0,0,0,0l0,0l-1.7,2.8c-0.3,0.5-0.8,0.7-1.3,0.7h0c-0.4,0-0.8,0.2-1.1,0.5L19.9,25c-0.3,0.3-0.3,0.8,0,1.1l0.5,0.5
		c0.3,0.3,0.5,0.7,0.5,1.1v0.9c0,0.9-0.7,1.5-1.5,1.5h-0.6c-0.6,0-1.1-0.3-1.4-0.9L15.2,25c-0.2-0.4-0.7-0.5-1-0.3l0,0
		c-0.1,0-0.1,0.1-0.2,0.1l-1.9,1.9c-0.3,0.3-0.7,0.5-1.1,0.5H0.2C1.7,38.9,11.8,48,24,48c13.3,0,24-10.7,24-24
		C48,12.9,40.5,3.5,30.2,0.8z M39.5,33.9c0,0.4-0.2,0.8-0.5,1.1l-0.9,0.9c-0.3,0.3-0.7,0.5-1.1,0.5h-1.5c-0.4,0-0.8-0.2-1.1-0.5
		l-1.3-1.3c-0.6-0.6-1.6-0.9-2.5-0.7l-2.1,0.5c-0.1,0-0.2,0-0.4,0h-1c-0.4,0-0.8-0.2-1.1-0.5l-1.2-1.2c-0.1-0.1-0.2-0.3-0.2-0.5v-1
		c0-0.3,0.2-0.6,0.5-0.7l3.8-1.5c0.2-0.1,0.4-0.2,0.5-0.3l2.3-1.6c0.1-0.1,0.3-0.1,0.4-0.1h1.2c0.3,0,0.6,0.2,0.7,0.5l0.5,1.2
		c0.1,0.1,0.2,0.2,0.4,0.2h0.4c0.2,0,0.3-0.1,0.4-0.3l0.4-1.4c0-0.2,0.2-0.3,0.4-0.3h0.6c0.2,0,0.4,0.2,0.4,0.4v1.3
		c0,0.2,0.1,0.4,0.2,0.5l1.2,1.2c0.3,0.3,0.5,0.7,0.5,1.1V33.9z"/>
	<path class="st1" d="M25.2,20.3c0.1,0,0.1,0.1,0.2,0.2c0.1,0.3,0.4,0.4,0.7,0.4h0.3c0.4,0,0.8-0.3,0.8-0.8v-7.6
		c0-0.6-0.3-1.1-0.9-1.4l-1-0.5c-0.4-0.2-0.5-0.7-0.3-1c0.1-0.1,0.2-0.2,0.3-0.3l4-3c0.7-0.5,1.1-1.3,1.1-2.2V0.8
		C28.2,0.3,26.1,0,24,0C10.7,0,0,10.7,0,24c0,1,0.1,2.1,0.2,3.1H11c0.4,0,0.8-0.2,1.1-0.5l1.9-1.9c0.3-0.3,0.8-0.3,1.1,0
		c0.1,0.1,0.1,0.1,0.1,0.2l2.2,4.4c0.3,0.5,0.8,0.9,1.4,0.9h0.6c0.9,0,1.5-0.7,1.5-1.5v-0.9c0-0.4-0.2-0.8-0.5-1.1l-0.5-0.5
		c-0.3-0.3-0.3-0.8,0-1.1l0.5-0.5c0.3-0.3,0.7-0.5,1.1-0.5h0c0.5,0,1-0.3,1.3-0.8l1.7-2.8C24.7,20.2,25,20.2,25.2,20.3L25.2,20.3z
		 M39,30.4l-1.2-1.2c-0.1-0.1-0.2-0.3-0.2-0.5v-1.3c0-0.2-0.2-0.4-0.4-0.4h-0.6c-0.2,0-0.3,0.1-0.4,0.3l-0.4,1.4
		c0,0.2-0.2,0.3-0.4,0.3h-0.4c-0.2,0-0.3-0.1-0.4-0.2l-0.5-1.2c-0.1-0.3-0.4-0.5-0.7-0.5h-1.2c-0.2,0-0.3,0-0.4,0.1l-2.3,1.6
		c-0.2,0.1-0.3,0.2-0.5,0.3l-3.8,1.5c-0.3,0.1-0.5,0.4-0.5,0.7v1c0,0.2,0.1,0.4,0.2,0.5l1.2,1.2c0.3,0.3,0.7,0.5,1.1,0.5h1
		c0.1,0,0.3,0,0.4,0l2.1-0.5c0.9-0.2,1.8,0,2.5,0.7l1.3,1.3c0.3,0.3,0.7,0.5,1.1,0.5H37c0.4,0,0.8-0.2,1.1-0.5L39,35
		c0.3-0.3,0.5-0.7,0.5-1.1v-2.4C39.5,31.1,39.3,30.7,39,30.4L39,30.4z"/>
</g>
</svg>
