<?xml version="1.0" encoding="utf-8"?>
<!-- Generator: Adobe Illustrator 23.0.2, SVG Export Plug-In . SVG Version: 6.00 Build 0)  -->
<svg version="1.1" id="Layer_1" focusable="false" xmlns="http://www.w3.org/2000/svg" xmlns:xlink="http://www.w3.org/1999/xlink"
	 x="0px" y="0px" width="35.4px" height="48px" viewBox="0 0 35.4 48" style="enable-background:new 0 0 35.4 48;"
	 xml:space="preserve">
<style type="text/css">
	.st0{fill:#007396;}
	.st1{fill:#ED8B00;}
</style>
<g>
	<path class="st0" d="M25.8,29.3c0.9-0.6,2.2-1.2,2.2-1.2s-3.6,0.7-7.2,1c-4.4,0.4-9.2,0.4-11.5,0.1c-5.6-0.7,3.1-2.8,3.1-2.8
		s-3.4-0.2-7.6,1.8C-0.2,30.6,16.9,31.7,25.8,29.3z"/>
	<path class="st1" d="M17.8,26.3c-1.8-4-7.8-7.5,0-13.7C27.5,5,22.5,0,22.5,0c2,7.9-7.1,10.3-10.4,15.2
		C9.9,18.6,13.2,22.2,17.8,26.3z"/>
	<path class="st1" d="M28.5,9.8c0,0-16.4,4.1-8.6,13.1c2.3,2.7-0.6,5.1-0.6,5.1s5.9-3,3.2-6.8C20,17.6,18,15.9,28.5,9.8z"/>
	<path class="st0" d="M27.9,35.2c-0.1,0.1-0.1,0.2-0.2,0.2c12-3.2,7.6-11.1,1.9-9.1c-0.3,0.1-0.6,0.3-0.8,0.6c0.3-0.1,0.7-0.2,1-0.3
		C32.8,26,36.9,30.5,27.9,35.2L27.9,35.2z"/>
	<path class="st0" d="M32.3,41c0,0,1.4,1.1-1.5,2c-5.4,1.6-22.6,2.1-27.3,0.1c-1.7-0.7,1.5-1.8,2.5-2c1-0.2,1.7-0.2,1.7-0.2
		c-1.9-1.3-12.3,2.6-5.3,3.8C21.6,47.8,37.3,43.2,32.3,41z"/>
	<path class="st0" d="M11.4,37.1c-7.4,2.1,4.5,6.3,13.9,2.3c-0.9-0.4-1.8-0.8-2.6-1.3c-4.2,0.8-6.1,0.9-9.9,0.4
		C9.6,38.2,11.4,37.1,11.4,37.1z"/>
	<path class="st0" d="M28.2,46.2c-7.4,1.4-16.5,1.2-21.9,0.3c0,0,1.1,0.9,6.8,1.3c8.6,0.6,21.9-0.3,22.2-4.4
		C35.4,43.5,34.8,45,28.2,46.2L28.2,46.2z"/>
	<path class="st0" d="M24.2,33.1c-5.5,1.1-8.8,1-12.8,0.6c-3.1-0.3-1.1-1.8-1.1-1.8c-8.1,2.7,4.5,5.8,15.9,2.4
		C25.4,34,24.7,33.6,24.2,33.1z"/>
</g>
</svg>
