<?xml version="1.0" encoding="utf-8"?>
<!-- Generator: Adobe Illustrator 23.0.2, SVG Export Plug-In . SVG Version: 6.00 Build 0)  -->
<svg version="1.1" id="Layer_1" focusable="false" xmlns="http://www.w3.org/2000/svg" xmlns:xlink="http://www.w3.org/1999/xlink"
	 x="0px" y="0px" width="48px" height="48px" viewBox="0 0 48 48" style="enable-background:new 0 0 48 48;" xml:space="preserve">
<style type="text/css">
	.st0{fill:#F0DB4F;}
</style>
<path class="st0" d="M42.9,0H5.1C2.3,0,0,2.3,0,5.1v37.7C0,45.7,2.3,48,5.1,48h37.7c2.8,0,5.1-2.3,5.1-5.1V5.1C48,2.3,45.7,0,42.9,0
	z M26.1,37.4c0,4.7-2.7,6.8-6.7,6.8c-3.6,0-5.7-1.9-6.8-4.1l3.7-2.2c0.7,1.3,1.4,2.3,2.9,2.3c1.5,0,2.4-0.6,2.4-2.8V22h4.5
	L26.1,37.4L26.1,37.4z M36.8,44.2c-4.2,0-6.9-2-8.2-4.6l3.7-2.1c1,1.6,2.2,2.7,4.4,2.7c1.9,0,3.1-0.9,3.1-2.2c0-1.5-1.2-2.1-3.3-3
	l-1.1-0.5c-3.3-1.4-5.4-3.1-5.4-6.8c0-3.4,2.6-6,6.6-6c2.9,0,4.9,1,6.4,3.6l-3.5,2.2c-0.8-1.4-1.6-1.9-2.9-1.9
	c-1.3,0-2.2,0.8-2.2,1.9c0,1.4,0.8,1.9,2.8,2.7l1.1,0.5c3.8,1.6,6,3.3,6,7.1C44.3,42,41.1,44.2,36.8,44.2L36.8,44.2z"/>
</svg>
