<?xml version="1.0" encoding="utf-8"?>
<!-- Generator: Adobe Illustrator 23.0.2, SVG Export Plug-In . SVG Version: 6.00 Build 0)  -->
<svg version="1.1" id="Layer_1" focusable="false" xmlns="http://www.w3.org/2000/svg" xmlns:xlink="http://www.w3.org/1999/xlink"
	 x="0px" y="0px" width="48px" height="48px" viewBox="0 0 48 48" style="enable-background:new 0 0 48 48;" xml:space="preserve">
<style type="text/css">
	.st0{fill:#00BCD4;}
</style>
<path class="st0" d="M10.7,48h-10V16h10V48z M5.8,11.6C2.6,11.6,0,8.9,0,5.8C0,2.6,2.6,0,5.8,0c3.2,0,5.8,2.6,5.8,5.8
	C11.5,8.9,8.9,11.6,5.8,11.6z M48,48h-9.9V32.4c0-3.7-0.1-8.5-5.2-8.5c-5.2,0-6,4-6,8.2V48H17V16h9.5v4.4h0.1
	c1.3-2.5,4.6-5.2,9.4-5.2c10.1,0,11.9,6.6,11.9,15.2L48,48L48,48z"/>
</svg>
