<?xml version="1.0" encoding="utf-8"?>
<!-- Generator: Adobe Illustrator 23.0.2, SVG Export Plug-In . SVG Version: 6.00 Build 0)  -->
<svg version="1.1" id="Layer_1" focusable="false" xmlns="http://www.w3.org/2000/svg" xmlns:xlink="http://www.w3.org/1999/xlink"
	 x="0px" y="0px" width="91.3px" height="48px" viewBox="0 0 91.3 48" style="enable-background:new 0 0 91.3 48;"
	 xml:space="preserve">
<style type="text/css">
	.st0{fill:#8892BE;}
</style>
<path class="st0" d="M45.6,2.4c24.4,0,43.2,10.3,43.2,21.6S70.1,45.6,45.6,45.6C21.2,45.6,2.4,35.3,2.4,24S21.2,2.4,45.6,2.4
	 M45.6,0C20.4,0,0,10.7,0,24s20.4,24,45.6,24s45.6-10.7,45.6-24S70.8,0,45.6,0z M31.1,22.1c-1.1,5.8-5.1,5.2-10,5.2l2-10.1
	C28.5,17.2,32.2,16.6,31.1,22.1L31.1,22.1z M13.9,37.4h5.2l1.2-6.4c5.9,0,9.5,0.4,12.9-2.7c3.7-3.4,4.7-9.5,2-12.6
	c-1.4-1.6-3.6-2.4-6.6-2.4H18.6L13.9,37.4z M40.4,7h5.2l-1.2,6.4c4.5,0,8.7-0.3,10.7,1.5c2.1,1.9,1.1,4.4-1.2,16.1h-5.3
	c2.2-11.3,2.6-12.3,1.8-13.1c-0.8-0.8-2.5-0.7-6.8-0.7L40.9,31h-5.2L40.4,7L40.4,7z M72,22.1c-1.1,5.9-5.2,5.2-10,5.2l2-10.1
	C69.4,17.2,73.1,16.6,72,22.1L72,22.1z M54.8,37.4H60l1.2-6.4c6.2,0,9.6,0.4,12.9-2.7c3.7-3.4,4.7-9.5,2-12.6
	c-1.4-1.6-3.6-2.4-6.6-2.4H59.5L54.8,37.4z"/>
</svg>
