<?xml version="1.0" encoding="utf-8"?>
<!-- Generator: Adobe Illustrator 23.0.2, SVG Export Plug-In . SVG Version: 6.00 Build 0)  -->
<svg version="1.1" id="Layer_1" focusable="false" xmlns="http://www.w3.org/2000/svg" xmlns:xlink="http://www.w3.org/1999/xlink"
	 x="0px" y="0px" width="64px" height="48px" viewBox="0 0 64 48" style="enable-background:new 0 0 64 48;" xml:space="preserve">
<style type="text/css">
	.st0{fill:#D16897;}
</style>
<path class="st0" d="M30.2,36.3C30.2,36.3,30.1,36.4,30.2,36.3z M55.1,27.6c-2,0-4,0.5-5.8,1.3c-0.6-1.2-1.2-2.2-1.3-3
	c-0.1-0.9-0.2-1.4-0.1-2.5c0.1-1.1,0.8-2.6,0.8-2.7S48.6,20,47.3,20c-1.3,0-2.4,0.2-2.5,0.6c-0.2,0.6-0.4,1.3-0.5,1.9
	c-0.2,1.2-2.6,5.3-3.9,7.5c-0.4-0.8-0.8-1.6-0.9-2.2c-0.1-0.9-0.2-1.4-0.1-2.5s0.8-2.6,0.8-2.7s-0.1-0.7-1.4-0.7
	c-1.3,0-2.4,0.2-2.5,0.6c-0.1,0.3-0.3,1.1-0.5,1.9c-0.3,0.8-3.4,7.7-4.2,9.5c-0.4,0.9-0.8,1.7-1,2.2c0,0.1-0.1,0.1-0.1,0.2v-0.1
	c-0.2,0.4-0.3,0.7-0.3,0.7l0,0c-0.2,0.3-0.4,0.6-0.4,0.6c-0.1,0-0.2-0.8,0-2c0.5-2.4,1.6-6.2,1.6-6.3c0-0.1,0.2-0.7-0.7-1.1
	c-0.9-0.3-1.2,0.2-1.3,0.2s-0.1,0.2-0.1,0.2s1-4.2-1.9-4.2c-1.8,0-4.4,2-5.7,3.8c-0.8,0.4-2.5,1.4-4.3,2.3c-0.7,0.4-1.4,0.8-2.1,1.1
	l-0.1-0.1c-4-3.7-10.7-6.4-10.4-11.6C4.9,18,5.6,13.1,17.5,7.1c9.8-4.9,17.6-3.5,19-0.6c1.9,4.2-4.2,12.2-14.4,13.3
	c-3.9,0.4-5.9-1.1-6.4-1.6c-0.5-0.6-0.6-0.6-0.8-0.5c-0.3,0.2-0.1,0.7,0,1c0.3,0.8,1.5,2.2,3.7,2.9c1.9,0.6,6.4,0.9,11.9-1.2
	c6.2-2.4,11-9,9.6-14.6S29.3-1.7,20.5,1.5c-5.3,1.9-11,4.8-15.1,8.6c-4.9,4.6-5.6,8.5-5.3,10.2c1.1,5.9,9.3,9.7,12.5,12.6
	c-0.2,0.1-0.3,0.2-0.4,0.2c-1.6,0.8-7.8,4-9.4,7.5c-1.7,3.9,0.3,6.7,1.6,7c4.2,1.2,8.5-0.9,10.8-4.4c2.3-3.4,2-7.9,1-9.9
	c0,0,0,0,0-0.1c0.4-0.2,0.8-0.5,1.3-0.7c0.8-0.5,1.6-0.9,2.3-1.3c-0.4,1.1-0.7,2.4-0.8,4.3c-0.2,2.2,0.7,5,1.9,6.2
	c0.5,0.5,1.1,0.5,1.5,0.5c1.4,0,2-1.1,2.7-2.5c0.8-1.7,1.6-3.6,1.6-3.6s-0.9,5.2,1.6,5.2c0.9,0,1.9-1.2,2.3-1.8l0,0c0,0,0,0,0.1-0.1
	s0.1-0.2,0.1-0.2l0,0c0.4-0.6,1.2-2.1,2.5-4.6c1.6-3.2,3.2-7.1,3.2-7.1c0.1,0.9,0.4,1.7,0.6,2.6c0.3,0.9,0.9,2,1.3,3
	c-0.4,0.5-0.6,0.8-0.6,0.8l0,0c-0.3,0.4-0.6,0.8-1,1.2c-1.3,1.5-2.8,3.3-3,3.8c-0.2,0.6-0.2,1,0.3,1.4c0.3,0.3,0.9,0.3,1.6,0.2
	c1.1-0.1,2-0.4,2.3-0.5c0.7-0.3,1.4-0.6,2-1.1c1.2-0.9,2-2.2,1.9-4c0-1-0.3-1.9-0.7-2.8c0.1-0.2,0.2-0.3,0.3-0.5
	c2-2.9,3.5-6.1,3.5-6.1c0.1,0.9,0.4,1.7,0.6,2.6c0.2,0.8,0.7,1.7,1.1,2.6c-1.9,1.5-3,3.3-3.4,4.4c-0.7,2.1-0.2,3.1,0.9,3.3
	c0.5,0.1,1.2-0.1,1.7-0.3c0.8-0.3,1.5-0.6,2.2-1.1c1.2-0.9,2.5-2.2,2.4-4c0-0.8-0.2-1.6-0.5-2.3c1.6-0.7,3.6-1,6.2-0.7
	c5.6,0.6,6.7,4.1,6.4,5.6c-0.2,1.4-1.4,2.3-1.8,2.5c-0.4,0.2-0.5,0.3-0.5,0.5c0,0.3,0.2,0.2,0.6,0.2c0.5-0.1,2.9-1.2,3-3.9
	C64.1,31.3,60.9,27.6,55.1,27.6L55.1,27.6z M12.2,42.1c-1.8,2-4.4,2.8-5.5,2.1c-1.2-0.7-0.7-3.6,1.5-5.8c1.4-1.3,3.2-2.5,4.3-3.2
	c0.3-0.2,0.7-0.4,1.1-0.7c0.1,0,0.1-0.1,0.1-0.1c0.1-0.1,0.2-0.1,0.3-0.2C14.9,37.3,14.1,39.9,12.2,42.1L12.2,42.1z M25.6,32.9
	c-0.6,1.6-2,5.6-2.8,5.4c-0.7-0.2-1.1-3.2-0.1-6.2c0.5-1.5,1.6-3.3,2.2-4c1-1.1,2.1-1.5,2.4-1C27.6,27.6,26,31.9,25.6,32.9
	L25.6,32.9z M36.7,38.2c-0.3,0.1-0.5,0.2-0.6,0.2s0.1-0.2,0.1-0.2s1.4-1.5,1.9-2.2c0.3-0.4,0.7-0.9,1.1-1.4c0,0,0,0.1,0,0.2
	C39.2,36.5,37.5,37.7,36.7,38.2L36.7,38.2z M45.3,36.3c-0.2-0.1-0.2-0.6,0.5-2.1c0.3-0.6,0.9-1.5,1.9-2.4c0.1,0.3,0.2,0.7,0.2,1.1
	C47.8,35.1,46.2,35.9,45.3,36.3L45.3,36.3z"/>
</svg>
