<svg xmlns="http://www.w3.org/2000/svg" width="39.908" height="47.9957" viewBox="0 0 39.908 47.9957"><title>sourcerer_io</title><path d="M39.908,29.931a4.4363,4.4363,0,0,1-.7064.1141q-4.0569.0121-8.1137-.0022a1.2342,1.2342,0,0,1-.7455-.1737c-1.8414-1.5914-4.1053-1.9888-6.3968-2.3353-4.0509-.6124-8.1221-1.1229-12.1415-1.9a15.3728,15.3728,0,0,1-7.693-3.69A10.7211,10.7211,0,0,1,.8019,14.6261C.3777,9.8843,2.4465,6.32,6.2,3.6121A19.98,19.98,0,0,1,16.382.1225c.2611-.0234.5191-.0809.7785-.1225h3.9908c.2589.0414.5165.1.7771.1215a23.3216,23.3216,0,0,1,8.2133,2.02c5.6251,2.6929,8.6219,7.1467,8.8243,13.4273.0189.5868-.1268.83-.77.82q-3.49-.0514-6.98.0006c-.6553.01-.87-.2242-.8476-.8423a4.9991,4.9991,0,0,0-.1084-1.1217c-.6047-3.1168-2.6539-4.9415-5.5189-5.894a18.1414,18.1414,0,0,0-10.3551-.2568,7.3286,7.3286,0,0,0-4.0739,2.6,4.1892,4.1892,0,0,0,1.3527,6.4517A13.4294,13.4294,0,0,0,15.3374,18.62c3.51.6211,7.0494,1.0689,10.5736,1.61a26.7334,26.7334,0,0,1,7.7884,2.1133,10.9094,10.9094,0,0,1,5.6279,5.5724c.2224.5269.3886,1.0774.5807,1.617Z" style="fill:#00bcd4"/><path d="M0,33.2567H1.2385c.268-.7325.3409-1.5324.7786-1.9479.3847-.3652,1.1781-.3,1.8628-.4392v.9658s-1.3854.3261-1.2484,1.4213h3.077a1.5322,1.5322,0,0,1,.0523.2923c.0023,1.7716.0018,3.5433.0018,5.2505H4.9885V33.811H2.7714V38.8H1.1086V34.1043c-.1065-.0259-.541-.0487-1.1086-.0716Z" style="fill:#00bcd4"/><path d="M29.6447,47.8886c-1.1509,0-2.302-.0123-3.4525.0065-.4036.0067-.5388-.1336-.5362-.5384q.0216-3.4524,0-6.9051c-.0027-.418.1094-.5907.5584-.5873q3.4524.0259,6.9051,0c.4387-.0032.5706.1478.5676.5764q-.0239,3.4524.0014,6.905c.0038.459-.1811.5567-.5912.55C31.9466,47.8758,30.7955,47.8886,29.6447,47.8886Z" style="fill:#00bcd4"/><path d="M35.8624,38.9674a3.9932,3.9932,0,1,1,4.0428-3.9092A3.9839,3.9839,0,0,1,35.8624,38.9674Z" style="fill:#00bcd4"/><path d="M23.6885,43.8541a4.0051,4.0051,0,1,1-4.0357-3.9785A3.9875,3.9875,0,0,1,23.6885,43.8541Zm-4.0269-2.97a3.0025,3.0025,0,1,0,3.0182,2.98A3.0273,3.0273,0,0,0,19.6616,40.8838Z" style="fill:#00bcd4"/><path d="M12.6866,39.9568c-.6492,1.0565-1.27,2.0662-1.89,3.0767-.843,1.3737-1.7275,2.7244-2.5084,4.1326a1.1419,1.1419,0,0,1-1.4831.6589c.0848-.1663.1585-.3376.2546-.4952,1.3682-2.243,2.7682-4.4674,4.0914-6.7366A1.1636,1.1636,0,0,1,12.6866,39.9568Z" style="fill:#00bcd4"/><path d="M9.0865,42.0285a10.1607,10.1607,0,0,1-.253,1.23,1.3984,1.3984,0,0,1-1.4779.996c-.6822-.0218-1.2894-.3063-1.3956-.9924a8.3129,8.3129,0,0,1-.0159-2.4684,1.2989,1.2989,0,0,1,1.4387-1.0261,1.4038,1.4038,0,0,1,1.463,1.0187A10.363,10.363,0,0,1,9.0865,42.0285Zm-.9022-.0214c0-.8952-.2849-1.393-.7971-1.3936-.5166-.0006-.7911.4815-.7922,1.3913-.0011.9169.2655,1.384.79,1.3852S8.1845,42.9143,8.1843,42.0071Z" style="fill:#00bcd4"/><path d="M13.7473,45.7929a9.8412,9.8412,0,0,1-.2184,1.1706,1.4072,1.4072,0,0,1-1.453,1.0321c-.7463.0065-1.3234-.289-1.45-1a7.5613,7.5613,0,0,1-.032-2.4039,1.3269,1.3269,0,0,1,1.4739-1.0742,1.433,1.433,0,0,1,1.4787,1.0955A10.3426,10.3426,0,0,1,13.7473,45.7929Zm-2.466-.0625c0,.1106-.0081.222.0013.3318.0434.5025.1118,1.0467.7454,1.0767.6511.0308.7346-.5183.806-1.0147a2.6236,2.6236,0,0,0,.0259-.3971c-.0089-.9079-.2983-1.371-.836-1.3458C11.5178,44.405,11.2782,44.8352,11.2813,45.73Z" style="fill:#00bcd4"/><rect x="4.4342" y="31.0396" width="1.1086" height="1.1086" style="fill:#00bcd4"/><path d="M19.6616,40.8838A3.0025,3.0025,0,0,1,19.7,46.8886a3.0025,3.0025,0,1,1-.0388-6.0048Z" style="fill:#00bcd4"/><path d="M8.1843,42.0071c0,.9072-.2753,1.384-.7989,1.3829s-.7915-.4683-.79-1.3852c.0011-.91.2756-1.3919.7922-1.3913C7.8994,40.6141,8.1841,41.1119,8.1843,42.0071Z" style="fill:#00bcd4"/><path d="M11.2813,45.73c-.0031-.8952.2365-1.3254.7426-1.3491.5377-.0252.8271.4379.836,1.3458a2.6236,2.6236,0,0,1-.0259.3971c-.0714.4964-.1549,1.0455-.806,1.0147-.6336-.03-.702-.5742-.7454-1.0767C11.2732,45.9524,11.2813,45.841,11.2813,45.73Z" style="fill:#00bcd4"/></svg>