<svg xmlns="http://www.w3.org/2000/svg" width="59.91" height="47.9957" viewBox="0 0 59.91 47.9957"><title>sourcerer_io</title><path d="M49.909,29.931a4.4382,4.4382,0,0,1-.7064.1141q-4.0569.0121-8.1138-.0022a1.2341,1.2341,0,0,1-.7454-.1737c-1.8414-1.5914-4.1053-1.9888-6.3968-2.3353-4.0509-.6124-8.1221-1.1229-12.1415-1.9a15.3728,15.3728,0,0,1-7.693-3.69,10.7207,10.7207,0,0,1-3.3092-7.3177c-.4242-4.7418,1.6446-8.3065,5.3984-11.014A19.9808,19.9808,0,0,1,26.383.1225c.261-.0234.519-.0809.7784-.1225h3.9908c.259.0414.5166.1.7772.1215a23.3216,23.3216,0,0,1,8.2133,2.02c5.6251,2.6929,8.6219,7.1467,8.8243,13.4273.0189.5868-.1268.83-.77.82q-3.49-.0514-6.98.0006c-.6553.01-.87-.2242-.8476-.8423a4.9934,4.9934,0,0,0-.1085-1.1217c-.6046-3.1168-2.6538-4.9415-5.5189-5.894A18.1414,18.1414,0,0,0,24.386,8.2751a7.3287,7.3287,0,0,0-4.0738,2.6,4.1892,4.1892,0,0,0,1.3527,6.4517A13.4288,13.4288,0,0,0,25.3383,18.62c3.51.6211,7.0495,1.0689,10.5737,1.61A26.7334,26.7334,0,0,1,43.7,22.3426a10.9094,10.9094,0,0,1,5.6279,5.5724c.2224.5269.3886,1.0774.5807,1.617Z" style="fill:#00bcd4"/><path d="M10.001,33.2567H11.24c.2679-.7325.3408-1.5324.7786-1.9479.3847-.3652,1.178-.3,1.8628-.4392v.9658s-1.3854.3261-1.2484,1.4213H15.71a1.54,1.54,0,0,1,.0523.2923c.0023,1.7716.0018,3.5433.0018,5.2505H14.99V33.811H12.7724V38.8H11.11V34.1043c-.1064-.0259-.541-.0487-1.1085-.0716Z" style="fill:#00bcd4"/><path d="M39.6456,47.8886c-1.1508,0-2.3019-.0123-3.4524.0065-.4036.0067-.5388-.1336-.5362-.5384q.0216-3.4524,0-6.9051c-.0027-.418.1093-.5907.5584-.5873q3.4524.0259,6.905,0c.4388-.0032.5707.1478.5677.5764q-.0239,3.4524.0013,6.905c.0039.459-.181.5567-.5911.55C41.9476,47.8758,40.7965,47.8886,39.6456,47.8886Z" style="fill:#00bcd4"/><path d="M45.8634,38.9674a3.9932,3.9932,0,1,1,4.0428-3.9092A3.9839,3.9839,0,0,1,45.8634,38.9674Z" style="fill:#00bcd4"/><path d="M33.6894,43.8541a4.0051,4.0051,0,1,1-4.0356-3.9785A3.9873,3.9873,0,0,1,33.6894,43.8541Zm-4.0269-2.97a3.0025,3.0025,0,1,0,3.0183,2.98A3.0272,3.0272,0,0,0,29.6625,40.8838Z" style="fill:#00bcd4"/><path d="M22.6876,39.9568c-.6492,1.0565-1.27,2.0662-1.89,3.0767-.843,1.3737-1.7275,2.7244-2.5084,4.1326a1.1419,1.1419,0,0,1-1.4832.6589c.0849-.1663.1586-.3376.2547-.4952,1.3682-2.243,2.7682-4.4674,4.0914-6.7366A1.1636,1.1636,0,0,1,22.6876,39.9568Z" style="fill:#00bcd4"/><path d="M19.0875,42.0285a10.1607,10.1607,0,0,1-.253,1.23,1.3984,1.3984,0,0,1-1.4779.996c-.6822-.0218-1.29-.3063-1.3956-.9924a8.31,8.31,0,0,1-.0159-2.4684,1.2988,1.2988,0,0,1,1.4386-1.0261,1.4039,1.4039,0,0,1,1.4631,1.0187A10.363,10.363,0,0,1,19.0875,42.0285Zm-.9022-.0214c0-.8952-.2849-1.393-.7971-1.3936-.5166-.0006-.7911.4815-.7922,1.3913-.0011.9169.2654,1.384.79,1.3852S18.1855,42.9143,18.1853,42.0071Z" style="fill:#00bcd4"/><path d="M23.7483,45.7929a9.8412,9.8412,0,0,1-.2184,1.1706,1.4072,1.4072,0,0,1-1.4531,1.0321c-.7462.0065-1.3234-.289-1.45-1a7.5584,7.5584,0,0,1-.032-2.4039,1.3269,1.3269,0,0,1,1.4739-1.0742,1.4329,1.4329,0,0,1,1.4786,1.0955A10.3206,10.3206,0,0,1,23.7483,45.7929ZM21.2822,45.73c0,.1106-.0081.222.0014.3318.0434.5025.1118,1.0467.7453,1.0767.6511.0308.7346-.5183.806-1.0147a2.6108,2.6108,0,0,0,.026-.3971c-.0089-.9079-.2983-1.371-.836-1.3458C21.5188,44.405,21.2792,44.8352,21.2822,45.73Z" style="fill:#00bcd4"/><rect x="14.4352" y="31.0396" width="1.1086" height="1.1086" style="fill:#00bcd4"/><path d="M29.6625,40.8838a3.0025,3.0025,0,0,1,.0389,6.0048,3.0025,3.0025,0,1,1-.0389-6.0048Z" style="fill:#00bcd4"/><path d="M18.1853,42.0071c0,.9072-.2753,1.384-.7989,1.3829s-.7915-.4683-.79-1.3852c.0011-.91.2756-1.3919.7922-1.3913C17.9,40.6141,18.1851,41.1119,18.1853,42.0071Z" style="fill:#00bcd4"/><path d="M21.2822,45.73c-.003-.8952.2366-1.3254.7427-1.3491.5377-.0252.8271.4379.836,1.3458a2.6108,2.6108,0,0,1-.026.3971c-.0714.4964-.1549,1.0455-.806,1.0147-.6335-.03-.7019-.5742-.7453-1.0767C21.2741,45.9524,21.2822,45.841,21.2822,45.73Z" style="fill:#00bcd4"/></svg>